<svg width="24" height="24" viewBox="1383.74 713.097 50.8928 50.8928" fill="none" xmlns="http://www.w3.org/2000/svg">
<path d="M1391.16 735.363H1425.09" stroke="white" stroke-width="2.12053" stroke-miterlimit="10" stroke-linecap="round" stroke-linejoin="round"/>
<path d="M1408.12 735.363V762.93" stroke="white" stroke-width="2.12053" stroke-miterlimit="10" stroke-linecap="round" stroke-linejoin="round"/>
<path d="M1384.8 741.725H1391.16" stroke="white" stroke-width="2.12053" stroke-miterlimit="10" stroke-linecap="round" stroke-linejoin="round"/>
<path d="M1386.92 756.568L1391.16 753.388" stroke="white" stroke-width="2.12053" stroke-miterlimit="10" stroke-linecap="round" stroke-linejoin="round"/>
<path d="M1386.92 726.881L1391.16 731.123" stroke="white" stroke-width="2.12053" stroke-miterlimit="10" stroke-linecap="round" stroke-linejoin="round"/>
<path d="M1431.45 741.725H1425.09" stroke="white" stroke-width="2.12053" stroke-miterlimit="10" stroke-linecap="round" stroke-linejoin="round"/>
<path d="M1429.33 756.568L1425.09 753.388" stroke="white" stroke-width="2.12053" stroke-miterlimit="10" stroke-linecap="round" stroke-linejoin="round"/>
<path d="M1429.33 726.881L1425.09 731.123" stroke="white" stroke-width="2.12053" stroke-miterlimit="10" stroke-linecap="round" stroke-linejoin="round"/>
<path d="M1425.09 753.388L1408.12 762.93L1391.16 753.388V731.122L1408.12 720.52L1425.09 731.122V753.388Z" stroke="white" stroke-width="2.12053" stroke-miterlimit="10" stroke-linejoin="round"/>
<path d="M1396.46 714.158L1393.28 717.339L1396.46 720.519L1399.64 717.339L1396.46 714.158Z" stroke="white" stroke-width="2.12053" stroke-miterlimit="10" stroke-linecap="round" stroke-linejoin="round"/>
<path d="M1397.59 719.39L1402.22 724.023" stroke="white" stroke-width="2.12053" stroke-miterlimit="10" stroke-linecap="round" stroke-linejoin="round"/>
<path d="M1419.79 714.158L1416.61 717.339L1419.79 720.519L1422.96 717.339L1419.78 714.158H1419.79Z" stroke="white" stroke-width="2.12053" stroke-miterlimit="10" stroke-linecap="round" stroke-linejoin="round"/>
<path d="M1418.65 719.39L1414.02 724.023" stroke="white" stroke-width="2.12053" stroke-miterlimit="10" stroke-linecap="round" stroke-linejoin="round"/>
</svg>