<svg width="24" height="24" viewBox="942.666 2808.18 50.8928 50.8928" fill="none" xmlns="http://www.w3.org/2000/svg">
<path d="M964.93 2841.05H954.328L943.725 2851.65V2811.36H986.136V2834.69" stroke="white" stroke-width="2.12053" stroke-miterlimit="10" stroke-linecap="round" stroke-linejoin="round"/>
<path d="M952.208 2819.85H977.654" stroke="white" stroke-width="2.12053" stroke-miterlimit="10" stroke-linecap="round" stroke-linejoin="round"/>
<path d="M952.208 2826.21H977.654" stroke="white" stroke-width="2.12053" stroke-miterlimit="10" stroke-linecap="round" stroke-linejoin="round"/>
<path d="M952.208 2832.57H964.931" stroke="white" stroke-width="2.12053" stroke-miterlimit="10" stroke-linecap="round" stroke-linejoin="round"/>
<path d="M975.533 2845.04L979.774 2842.64L984.015 2845.04V2849.78L979.774 2852.18L975.533 2849.78V2845.04Z" stroke="white" stroke-width="2.12053" stroke-miterlimit="10" stroke-linecap="round" stroke-linejoin="round"/>
<path d="M988.257 2845.32L990.377 2843L988.761 2840.26L985.627 2841L982.069 2839.1L981.365 2836.81H978.184L977.48 2839.1L973.922 2841L970.788 2840.26L969.172 2843L971.292 2845.32V2849.51L969.172 2851.83L970.788 2854.57L973.922 2853.82L977.48 2855.73L978.184 2858.02H981.365L982.069 2855.73L985.627 2853.82L988.761 2854.57L990.377 2851.83L988.257 2849.51V2845.32Z" stroke="white" stroke-width="2.12053" stroke-miterlimit="10" stroke-linecap="round" stroke-linejoin="round"/>
</svg>