<svg width="24" height="24" viewBox="1383.74 2146.58 50.8928 50.8928" fill="none" xmlns="http://www.w3.org/2000/svg">
<path d="M1418.73 2177.33L1409.18 2183.69L1399.64 2177.33V2168.84L1409.18 2162.48L1418.73 2168.84V2177.33Z" stroke="white" stroke-width="2.12053" stroke-miterlimit="10" stroke-linecap="round" stroke-linejoin="round"/>
<path d="M1425.09 2169.48L1430.39 2163.81L1427.11 2158.36L1419.53 2160.39L1414.61 2157.6L1412.36 2149.76H1406L1403.76 2157.6L1398.84 2160.39L1391.25 2158.36L1387.98 2163.81L1393.28 2169.48V2176.69L1387.98 2182.36L1391.25 2187.81L1398.84 2185.78L1403.76 2188.57L1406 2196.41H1412.36L1414.61 2188.57L1419.53 2185.78L1427.11 2187.81L1430.39 2182.36L1425.09 2176.69V2169.48Z" stroke="white" stroke-width="2.12053" stroke-miterlimit="10" stroke-linecap="round" stroke-linejoin="round"/>
<path d="M1409.18 2169.9L1406 2173.08L1409.18 2176.27L1412.36 2173.08L1409.18 2169.9H1409.18Z" stroke="white" stroke-width="2.12053" stroke-miterlimit="10" stroke-linecap="round" stroke-linejoin="round"/>
</svg>