<svg width="24" height="24" viewBox="722.131 1705.51 50.8928 50.8928" fill="none" xmlns="http://www.w3.org/2000/svg">
<path d="M763.483 1749.22V1738.37H753.94L749.699 1730.42L753.94 1723.53H760.302L762.422 1725.65H769.925" stroke="white" stroke-width="2.12053" stroke-miterlimit="10" stroke-linecap="round" stroke-linejoin="round"/>
<path d="M747.579 1755.34L765.192 1748.57L771.965 1730.95L765.192 1713.34L747.579 1706.57L729.966 1713.34L723.193 1730.95L729.966 1748.57L747.579 1755.34Z" stroke="white" stroke-width="2.12053" stroke-miterlimit="10" stroke-linecap="round" stroke-linejoin="round"/>
<path d="M765.44 1713.99H759.242V1716.11L757.121 1719.29H752.88V1713.99H755.001L756.915 1710.16" stroke="white" stroke-width="2.12053" stroke-miterlimit="10" stroke-linecap="round" stroke-linejoin="round"/>
<path d="M738.255 1710.15L734.855 1720.35L740.157 1722.47V1728.83L735.916 1730.95L733.795 1729.89V1725.65L729.554 1728.83V1734.13L732.735 1738.38H741.217L746.518 1745.8L742.277 1753.22" stroke="white" stroke-width="2.12053" stroke-miterlimit="10" stroke-linecap="round" stroke-linejoin="round"/>
</svg>