<svg width="24" height="24" viewBox="1604.27 1595.24 50.8928 50.8928" fill="none" xmlns="http://www.w3.org/2000/svg">
<path d="M1620.18 1631.29L1615.94 1633.41L1611.69 1631.29V1614.32L1615.94 1612.2L1620.18 1614.32V1631.29Z" stroke="white" stroke-width="2.12053" stroke-miterlimit="10" stroke-linecap="round" stroke-linejoin="round"/>
<path d="M1647.74 1631.29L1643.5 1633.41L1639.26 1631.29V1614.32L1643.5 1612.2L1647.74 1614.32V1631.29Z" stroke="white" stroke-width="2.12053" stroke-miterlimit="10" stroke-linecap="round" stroke-linejoin="round"/>
<path d="M1611.69 1628.11H1607.45L1605.33 1622.81L1607.45 1617.51H1611.69V1628.11Z" stroke="white" stroke-width="2.12053" stroke-miterlimit="10" stroke-linecap="round" stroke-linejoin="round"/>
<path d="M1647.74 1628.11H1651.98L1654.11 1622.81L1651.98 1617.51H1647.74V1628.11Z" stroke="white" stroke-width="2.12053" stroke-miterlimit="10" stroke-linecap="round" stroke-linejoin="round"/>
<path d="M1643.5 1612.2V1604.78L1629.72 1598.42L1615.94 1604.78V1612.2" stroke="white" stroke-width="2.12053" stroke-miterlimit="10" stroke-linecap="round" stroke-linejoin="round"/>
<path d="M1643.5 1633.41V1637.65L1639.26 1642.95H1635.02" stroke="white" stroke-width="2.12053" stroke-miterlimit="10" stroke-linecap="round" stroke-linejoin="round"/>
<path d="M1635.02 1640.83H1626.54V1645.07H1635.02V1640.83Z" stroke="white" stroke-width="2.12053" stroke-miterlimit="10" stroke-linecap="round" stroke-linejoin="round"/>
</svg>