<svg width="24" height="24" viewBox="2486.41 713.097 50.8928 50.8928" fill="none" xmlns="http://www.w3.org/2000/svg">
<path d="M2500.15 739.647L2499.14 745.966L2494.94 746.984L2487.47 754.448V762.93H2495.96L2503.42 755.466L2504.44 751.267L2510.76 750.249L2500.15 739.647Z" stroke="white" stroke-width="2.12053" stroke-miterlimit="10" stroke-linecap="round" stroke-linejoin="round"/>
<path d="M2505.46 744.948L2524.58 725.821" stroke="white" stroke-width="2.12053" stroke-miterlimit="10" stroke-linecap="round" stroke-linejoin="round"/>
<path d="M2524.58 725.821L2533.07 723.7L2536.25 717.339L2533.07 714.158L2526.7 717.339L2524.58 725.821Z" stroke="white" stroke-width="2.12053" stroke-miterlimit="10" stroke-linecap="round" stroke-linejoin="round"/>
<path d="M2510.8 733.243L2503.38 725.821L2502.32 718.399L2498.08 714.158H2491.71L2495.96 718.399V722.64H2491.71L2487.47 718.399V724.76L2490.65 729.002L2499.14 730.062L2506.56 737.484" stroke="white" stroke-width="2.12053" stroke-miterlimit="10" stroke-linecap="round" stroke-linejoin="round"/>
<path d="M2517.16 739.604L2524.58 747.026L2532.01 748.086L2536.25 752.327V758.689L2532.01 754.448H2527.76V758.689L2532.01 762.93H2525.64L2521.4 759.749L2520.34 751.267L2512.92 743.845" stroke="white" stroke-width="2.12053" stroke-miterlimit="10" stroke-linecap="round" stroke-linejoin="round"/>
<path d="M2499.14 745.966L2504.44 751.267" stroke="white" stroke-width="2.12053" stroke-miterlimit="10" stroke-linecap="round" stroke-linejoin="round"/>
</svg>