<svg xmlns="http://www.w3.org/2000/svg" fill="none" viewBox="0 0 24 24"><g stroke="currentColor" stroke-linejoin="round" stroke-miterlimit="10" stroke-width="1.5"><path stroke-linecap="round" stroke-width="1.5" d="M4.912 10.748h13.334M11.577 10.748v10.833M2.413 13.248h2.5M3.246 19.081l1.666-1.25M3.246 7.415l1.666 1.667M20.745 13.248h-2.5M19.912 19.081l-1.666-1.25M19.912 7.415l-1.666 1.667"/><path stroke-width="1.5" d="m18.246 17.831-6.669 3.75-6.665-3.75v-8.75l6.665-4.166 6.669 4.166z"/><path stroke-linecap="round" stroke-width="1.5" d="m6.995 2.415-1.25 1.25 1.25 1.25 1.25-1.25zM7.439 4.47l1.82 1.822M16.163 2.415l-1.25 1.25 1.25 1.25 1.246-1.25-1.25-1.25zM15.715 4.47l-1.82 1.822"/></g></svg>