<svg xmlns="http://www.w3.org/2000/svg" fill="none" viewBox="0 0 24 24"><g stroke="currentColor" stroke-linejoin="round" stroke-miterlimit="10" stroke-width="2.121"><path stroke-linecap="round" stroke-width="1.00022118" d="M3.5 10.5h16M11.498 10.5v13M.501 13.5h3M1.5 20.5l2-1.5M1.5 6.5l2 2.001M22.5 13.5h-3M21.5 20.5l-2-1.5M21.5 6.5l-2 2.001"/><path stroke-width="1.00022118" d="m19.5 19-8.002 4.5L3.5 19V8.5l7.998-5 8.003 5z"/><path stroke-linecap="round" stroke-width="1.00022118" d="M6 .5 4.5 2 6 3.5 7.5 2zM6.532 2.968l2.184 2.185M17.002.5l-1.5 1.5 1.5 1.5L18.496 2l-1.5-1.5zM16.464 2.968l-2.183 2.185"/></g></svg>