<svg xmlns="http://www.w3.org/2000/svg" fill="none" viewBox="0 0 24 24"><g stroke="currentColor" stroke-linecap="round" stroke-linejoin="round" stroke-miterlimit="10" stroke-width="1.5"><path stroke-width="1.5" d="M10.746 14.909H6.58l-4.167 4.165V3.241H19.08v9.168M5.747 6.578h10M5.747 9.077h10M5.747 11.576h5M14.913 16.477l1.667-.943 1.666.943v1.863l-1.666.943-1.667-.943z"/><path stroke-width="1.5" d="m19.913 16.587.833-.912-.635-1.077-1.231.291-1.399-.746-.276-.9h-1.25l-.277.9-1.398.746-1.232-.29-.635 1.076.833.912v1.646l-.833.912.635 1.077 1.232-.295 1.398.75.277.9h1.25l.276-.9 1.399-.75 1.231.295.635-1.077-.833-.912z"/></g></svg>