<svg xmlns="http://www.w3.org/2000/svg" fill="none" viewBox="0 0 24 24"><g stroke="currentColor" stroke-linecap="round" stroke-linejoin="round" stroke-miterlimit="10" stroke-width="2.121"><path stroke-width="1.00022118" d="M10.5 15.502h-5l-5 5v-19h20v11.001M4.5 5.505h12M4.5 8.504h12M4.5 11.503h6M15.5 17.384l2-1.132 2 1.132v2.235l-2 1.132-2-1.132z"/><path stroke-width="1.00022118" d="m21.5 17.516 1-1.094-.762-1.292-1.478.349-1.678-.896-.332-1.08h-1.5l-.332 1.08-1.678.896-1.478-.35-.762 1.293 1 1.094v1.976l-1 1.094.762 1.292 1.478-.354 1.678.901.332 1.08h1.5l.332-1.08 1.678-.9 1.478.353.762-1.292-1-1.094z"/></g></svg>