<svg xmlns="http://www.w3.org/2000/svg" fill="none" viewBox="0 0 24 24"><g stroke="currentColor" stroke-linecap="round" stroke-linejoin="round" stroke-miterlimit="10" stroke-width="2.121"><path stroke-width="1.00022118" d="m16.502 14.502-4.504 3-4.499-3V10.5l4.5-3 4.503 3z"/><path stroke-width="1.00022118" d="M19.5 10.8 22 8.127l-1.546-2.57-3.575.957-2.32-1.316-1.061-3.697h-3L9.442 5.198l-2.32 1.316-3.58-.958-1.541 2.57L4.5 10.8v3.4L2 16.874l1.543 2.57 3.579-.957 2.32 1.316 1.056 3.697h3l1.06-3.697 2.321-1.316 3.575.957L22 16.874 19.5 14.2z"/><path stroke-width="1.00022118" d="m11.998 10.998-1.5 1.5 1.5 1.504 1.5-1.504z"/></g></svg>