<svg xmlns="http://www.w3.org/2000/svg" fill="none" viewBox="0 0 24 24"><g stroke="currentColor" stroke-linecap="round" stroke-linejoin="round" stroke-miterlimit="10" stroke-width="1.5"><path stroke-width="1.5" d="m15.747 14.078-3.753 2.5-3.75-2.5v-3.336l3.75-2.5 3.753 2.5z"/><path stroke-width="1.5" d="m18.246 10.993 2.083-2.228-1.29-2.142-2.978.798-1.934-1.096-.884-3.081h-2.5l-.88 3.08L7.93 7.422l-2.983-.798-1.285 2.142 2.083 2.228v2.834l-2.083 2.228 1.285 2.142 2.983-.798 1.934 1.096.88 3.081h2.5l.883-3.08 1.934-1.097 2.979.798 1.289-2.142-2.083-2.228z"/><path stroke-width="1.5" d="m11.994 11.158-1.25 1.25 1.25 1.254 1.25-1.254z"/></g></svg>