<svg xmlns="http://www.w3.org/2000/svg" fill="none" viewBox="0 0 24 24"><g stroke="currentColor" stroke-linecap="round" stroke-linejoin="round" stroke-miterlimit="10" stroke-width="2.121"><path stroke-width="1.00022118" d="M19.501 20.613v-5.116h-4.5l-2-3.75 2-3.249h3l1 1h3.538"/><path stroke-width="1.00022118" d="m12.001 23.5 8.306-3.193 3.194-8.31-3.194-8.304L12.001.5 3.695 3.693.501 11.997l3.194 8.31z"/><path stroke-width="1.00022118" d="M20.424 4h-2.923v1l-1 1.499h-2v-2.5h1l.903-1.806M7.604 2.189l-1.603 4.81 2.5 1v2.999l-2 1-1-.5v-2l-2 1.5v2.499l1.5 2.004h4l2.5 3.5-2 3.498"/></g></svg>