<svg xmlns="http://www.w3.org/2000/svg" fill="none" viewBox="0 0 24 24"><g stroke="currentColor" stroke-linecap="round" stroke-linejoin="round" stroke-miterlimit="10" stroke-width="1.5"><path stroke-width="1.5" d="M18.249 19.172V14.91h-3.75l-1.667-3.125 1.666-2.707h2.5l.834.833h2.948"/><path stroke-width="1.5" d="m11.999 21.578 6.921-2.661 2.662-6.924-2.662-6.92L12 2.411l-6.922 2.66-2.662 6.92 2.662 6.925z"/><path stroke-width="1.5" d="M19.018 5.328h-2.436v.833l-.834 1.25h-1.666V5.328h.833l.752-1.505M8.334 3.819 6.998 7.827l2.084.833v2.5l-1.667.833-.833-.417V9.91l-1.667 1.25v2.082l1.25 1.67h3.333l2.084 2.916-1.667 2.916"/></g></svg>