<svg xmlns="http://www.w3.org/2000/svg" fill="none" viewBox="0 0 24 24"><g stroke="currentColor" stroke-linecap="round" stroke-linejoin="round" stroke-miterlimit="10" stroke-width="1.5"><path stroke-width="1.5" d="m7.392 12.431-.397 2.484-1.65.4-2.936 2.933v3.333h3.336l2.932-2.933.4-1.65 2.484-.4zM9.479 14.515l7.513-7.517M16.992 6.998l3.337-.833 1.25-2.5-1.25-1.25-2.503 1.25zM11.577 9.915 8.661 6.998l-.416-2.917-1.667-1.666H4.075l1.67 1.666v1.667h-1.67L2.41 4.081v2.5l1.25 1.667 3.336.417 2.916 2.916M14.077 12.415l2.915 2.916 2.92.417 1.667 1.666v2.5l-1.667-1.666h-1.67v1.667l1.67 1.666H17.41l-1.666-1.25-.417-3.333-2.916-2.917M6.995 14.915l2.083 2.083"/></g></svg>