<svg xmlns="http://www.w3.org/2000/svg" fill="none" viewBox="0 0 24 24"><g stroke="currentColor" stroke-linecap="round" stroke-linejoin="round" stroke-miterlimit="10" stroke-width="2.121"><path stroke-width="1.00022118" d="m6.48 12.52-.476 2.98-1.98.48L.5 19.5v4h4.004l3.518-3.52.48-1.98 2.981-.48zM8.985 15.02 18 6M18.001 6l4.004-1 1.5-3-1.5-1.5L19.001 2zM11.503 9.5 8.003 6l-.499-3.5-2-2H2.502l2.004 2v2H2.5l-2-2v3l1.5 2 4.003.5 3.5 3.5M14.502 12.5l3.5 3.5 3.503.5 2 2v3l-2-2h-2.004v2l2.004 2h-3.004l-2-1.5-.5-4-3.498-3.5M6.004 15.5l2.5 2.5"/></g></svg>